<?xml version="1.0" encoding="UTF-8" standalone="no"?>
<svg
   xmlns:dc="http://purl.org/dc/elements/1.1/"
   xmlns:cc="http://creativecommons.org/ns#"
   xmlns:rdf="http://www.w3.org/1999/02/22-rdf-syntax-ns#"
   xmlns:svg="http://www.w3.org/2000/svg"
   xmlns="http://www.w3.org/2000/svg"
   width="64"
   height="64"
   viewBox="0 0 16.933333 16.933333"
   version="1.1"
   id="svg8">
  <defs
     id="defs2">
    <rect
       x="-0.76191146"
       y="3.4793447"
       width="29.618652"
       height="19.908537"
       id="rect75" />
    <rect
       x="19.961729"
       y="58.311317"
       width="301.04047"
       height="205.62657"
       id="rect12" />
  </defs>
  <metadata
     id="metadata5">
    <rdf:RDF>
      <cc:Work
         rdf:about="">
        <dc:format>image/svg+xml</dc:format>
        <dc:type
           rdf:resource="http://purl.org/dc/dcmitype/StillImage" />
        <dc:title></dc:title>
      </cc:Work>
    </rdf:RDF>
  </metadata>
  <g
     id="layer1">
    <g
       aria-label="ï™"
       transform="matrix(1.6302738,0,0,1.6302738,2.315202,-7.7324358)"
       id="text73"
       style="font-style:normal;font-weight:normal;font-size:10.5833px;line-height:1.25;font-family:sans-serif;letter-spacing:0px;word-spacing:0px;white-space:pre;shape-inside:url(#rect75);fill:#000000;fill-opacity:1;stroke:none">
      <path
         d="m 4.5299311,12.92789 c 0,0.106306 -0.082682,0.188988 -0.1889875,0.188988 h -1.133925 c -0.1063055,0 -0.1889875,-0.08268 -0.1889875,-0.188988 v -1.133925 c 0,-0.106305 0.082682,-0.188987 0.1889875,-0.188987 h 1.133925 c 0.1063054,0 0.1889875,0.08268 0.1889875,0.188987 z M 6.041831,8.9591529 c 0,0.8976906 -0.6142093,1.2402301 -1.0630546,1.4941821 -0.2775754,0.159459 -0.4488453,0.448846 -0.4488453,0.58468 0,0.106306 -0.082682,0.188988 -0.1889875,0.188988 h -1.133925 c -0.1063055,0 -0.1889875,-0.08268 -0.1889875,-0.188988 v -0.212611 c 0,-0.572868 0.5728684,-1.0630542 0.9921844,-1.2520417 0.3602574,-0.1653641 0.5197156,-0.3189164 0.5197156,-0.6260211 0,-0.2598578 -0.3484457,-0.501998 -0.7264207,-0.501998 -0.2126109,0 -0.4075043,0.07087 -0.5079039,0.1417406 -0.1122113,0.082682 -0.2303285,0.1889875 -0.5079039,0.5433391 -0.035435,0.047247 -0.094494,0.07087 -0.1476465,0.07087 -0.041341,0 -0.082682,-0.011812 -0.1122113,-0.035435 L 1.7482714,8.5752721 C 1.6714952,8.5162135 1.6478718,8.409908 1.7010245,8.327226 2.2089284,7.4826881 2.9294432,7.069278 3.8920983,7.069278 c 1.0158078,0 2.1497327,0.8091027 2.1497327,1.8898749 z m 2.2678499,1.1339251 c 0,-2.5040844 -2.0316155,-4.5356999 -4.5356998,-4.5356999 -2.5040843,0 -4.53569985,2.0316155 -4.53569985,4.5356999 0,2.504084 2.03161555,4.5357 4.53569985,4.5357 2.5040843,0 4.5356998,-2.031616 4.5356998,-4.5357 z"
         id="path97" />
    </g>
  </g>
</svg>
