<?xml version="1.0" encoding="UTF-8" standalone="no"?>
<svg
   xmlns:dc="http://purl.org/dc/elements/1.1/"
   xmlns:cc="http://creativecommons.org/ns#"
   xmlns:rdf="http://www.w3.org/1999/02/22-rdf-syntax-ns#"
   xmlns:svg="http://www.w3.org/2000/svg"
   xmlns="http://www.w3.org/2000/svg"
   width="64"
   height="64"
   viewBox="0 0 16.933333 16.933333"
   version="1.1"
   id="svg8">
  <defs
     id="defs2">
    <rect
       x="19.961729"
       y="58.311317"
       width="301.04047"
       height="205.62657"
       id="rect12" />
  </defs>
  <metadata
     id="metadata5">
    <rdf:RDF>
      <cc:Work
         rdf:about="">
        <dc:format>image/svg+xml</dc:format>
        <dc:type
           rdf:resource="http://purl.org/dc/dcmitype/StillImage" />
        <dc:title></dc:title>
      </cc:Work>
    </rdf:RDF>
  </metadata>
  <g
     id="layer1">
    <g
       aria-label=""
       transform="matrix(1.5642849,0,0,1.5642849,-29.788848,-93.58615)"
       id="text10"
       style="font-style:normal;font-weight:normal;font-size:10.5833px;line-height:1.25;font-family:sans-serif;letter-spacing:0px;word-spacing:0px;white-space:pre;shape-inside:url(#rect12);fill:#000000;fill-opacity:1;stroke:none">
      <path
         d="m 22.0398,67.948909 h -2.078863 v 0.75595 H 22.0398 Z m 2.078862,-0.75595 h -1.5119 c -0.206705,0 -0.377975,0.17127 -0.377975,0.377975 v 1.5119 c 0,0.206705 0.17127,0.377975 0.377975,0.377975 h 1.5119 c 0.206705,0 0.377975,-0.17127 0.377975,-0.377975 v -1.5119 c 0,-0.206705 -0.17127,-0.377975 -0.377975,-0.377975 z m 0.944938,-2.26785 h -5.102663 v 0.75595 H 25.0636 Z m -3.77975,-3.0238 h -1.322913 v 0.75595 h 1.322913 z m 7.748487,6.0476 h -4.346712 v 0.75595 h 4.346712 z m -5.669625,-6.80355 h -1.5119 c -0.206705,0 -0.377975,0.17127 -0.377975,0.377975 v 1.5119 c 0,0.206705 0.17127,0.377975 0.377975,0.377975 h 1.5119 c 0.206705,0 0.377975,-0.17127 0.377975,-0.377975 v -1.5119 c 0,-0.206705 -0.17127,-0.377975 -0.377975,-0.377975 z m 3.77975,3.0238 h -1.5119 c -0.206705,0 -0.377975,0.17127 -0.377975,0.377975 v 1.5119 c 0,0.206705 0.17127,0.377975 0.377975,0.377975 h 1.5119 c 0.206705,0 0.377975,-0.17127 0.377975,-0.377975 v -1.5119 c 0,-0.206705 -0.17127,-0.377975 -0.377975,-0.377975 z m 1.889875,0.75595 h -1.322912 v 0.75595 h 1.322912 z m 0,-3.0238 h -5.102662 v 0.75595 h 5.102662 z"
         style="font-style:normal;font-variant:normal;font-weight:normal;font-stretch:normal;font-family:FontAwesome;-inkscape-font-specification:FontAwesome"
         id="path34" />
    </g>
  </g>
</svg>
